# MagicaVoxel @ Ephtracy

# group
o 

# material
mtllib untitled.mtl
usemtl palette

# normals
vn -1 0 0
vn 1 0 0
vn 0 0 1
vn 0 0 -1
vn 0 -1 0
vn 0 1 0

# texcoords
vt 0.306641 0.5
vt 0.537109 0.5
vt 0.587891 0.5
vt 0.591797 0.5
vt 0.958984 0.5
vt 0.970703 0.5
vt 0.990234 0.5

# verts
v 0 2 0
v 0 2 -6.4
v 0 2.1 0
v 0 2.1 -1
v 0 2.1 -4.8
v 0 2.1 -6.4
v 0 4.4 -1
v 0 4.4 -4.8
v 0.2 2.1 -6.2
v 0.2 2.1 -6.4
v 0.2 3.8 -4.8
v 0.2 3.8 -6.2
v 0.2 3.9 -4.8
v 0.2 3.9 -6.4
v 0.2 4 -4.8
v 0.2 4 -6.4
v 0.5 2.1 -0.5
v 0.5 2.1 -1
v 0.5 2.2 -0.5
v 0.5 2.2 -1
v 0.5 2.2 -1.1
v 0.5 3.8 -1
v 0.5 3.8 -1.1
v 0.6 2.8 -0.9
v 0.6 2.8 -1
v 0.6 3 -0.9
v 0.6 3 -1
v 3.1 2.1 -6.2
v 3.1 2.1 -6.4
v 3.1 3.8 -6.2
v 3.1 3.8 -6.4
v 4.7 2.1 -4.8
v 4.7 2.1 -5.4
v 4.7 2.2 -4.7
v 4.7 2.2 -4.8
v 4.7 2.2 -5.4
v 4.7 3.8 -4.7
v 4.7 3.8 -4.8
v 5.7 2.8 -4.8
v 5.7 2.8 -4.9
v 5.7 3 -4.8
v 5.7 3 -4.9
v 6.2 2.2 -1
v 6.2 2.2 -1.1
v 6.2 2.2 -4.7
v 6.2 2.2 -4.8
v 6.2 4.2 -1
v 6.2 4.2 -1.1
v 6.2 4.2 -4.7
v 6.2 4.2 -4.8
v 0.2 2.2 -1
v 0.2 2.2 -1.1
v 0.2 2.2 -4.7
v 0.2 2.2 -4.8
v 0.2 3.8 -4.7
v 0.2 3.8 -4.8
v 0.2 4 -4.7
v 0.2 4 -4.8
v 0.2 4.2 -1
v 0.2 4.2 -1.1
v 0.2 4.2 -4.7
v 0.2 4.2 -4.8
v 0.4 2.1 -6.2
v 0.4 2.1 -6.4
v 0.4 3.8 -6.2
v 0.4 3.8 -6.4
v 0.7 2.8 -0.9
v 0.7 2.8 -1
v 0.7 3 -0.9
v 0.7 3 -1
v 1.7 2.1 -0.5
v 1.7 2.1 -1
v 1.7 2.2 -0.5
v 1.7 2.2 -1
v 1.7 2.2 -1.1
v 1.7 3.8 -1
v 1.7 3.8 -1.1
v 3.3 2.1 -6.2
v 3.3 2.1 -6.4
v 3.3 3.8 -4.7
v 3.3 3.8 -6.2
v 3.3 3.9 -4.7
v 3.3 3.9 -6.4
v 3.3 4 -4.7
v 3.3 4 -6.4
v 5.8 2.8 -4.8
v 5.8 2.8 -4.9
v 5.8 3 -4.8
v 5.8 3 -4.9
v 5.9 2.1 -4.8
v 5.9 2.1 -5.4
v 5.9 2.2 -4.7
v 5.9 2.2 -4.8
v 5.9 2.2 -5.4
v 5.9 3.8 -4.7
v 5.9 3.8 -4.8
v 6.4 2 0
v 6.4 2 -6.4
v 6.4 2.1 0
v 6.4 2.1 -1
v 6.4 2.1 -4.8
v 6.4 2.1 -6.4
v 6.4 4.4 -1
v 6.4 4.4 -4.8
v 0 2 0
v 0 2.1 0
v 6.4 2 0
v 6.4 2.1 0
v 0.5 2.1 -0.5
v 0.5 2.2 -0.5
v 1.7 2.1 -0.5
v 1.7 2.2 -0.5
v 0.6 2.8 -0.9
v 0.6 3 -0.9
v 0.7 2.8 -0.9
v 0.7 3 -0.9
v 0 2.1 -1
v 0 4.4 -1
v 0.1 2.1 -1
v 0.1 4.3 -1
v 0.1 4.4 -1
v 0.2 2.2 -1
v 0.2 4.2 -1
v 0.5 2.1 -1
v 0.5 2.2 -1
v 0.5 3.8 -1
v 0.6 2.2 -1
v 0.6 2.3 -1
v 0.6 2.8 -1
v 0.6 3 -1
v 0.6 3.6 -1
v 0.7 2.8 -1
v 0.7 3 -1
v 1.6 2.2 -1
v 1.6 2.3 -1
v 1.6 3.6 -1
v 1.7 2.1 -1
v 1.7 2.2 -1
v 1.7 3.8 -1
v 6.2 2.2 -1
v 6.2 4.2 -1
v 6.3 2.1 -1
v 6.3 4.3 -1
v 6.3 4.4 -1
v 6.4 2.1 -1
v 6.4 4.4 -1
v 0.2 2.2 -1.1
v 0.2 4.2 -1.1
v 0.5 2.2 -1.1
v 0.5 3.8 -1.1
v 1.7 2.2 -1.1
v 1.7 3.8 -1.1
v 6.2 2.2 -1.1
v 6.2 4.2 -1.1
v 0.2 2.1 -6.2
v 0.2 3.8 -6.2
v 0.4 2.1 -6.2
v 0.4 3.8 -6.2
v 3.1 2.1 -6.2
v 3.1 3.8 -6.2
v 3.3 2.1 -6.2
v 3.3 3.8 -6.2
v 0.2 2.2 -4.7
v 0.2 3.8 -4.7
v 0.2 4 -4.7
v 0.2 4.2 -4.7
v 3.3 3.8 -4.7
v 3.3 3.9 -4.7
v 3.3 4 -4.7
v 4.7 2.2 -4.7
v 4.7 3.8 -4.7
v 5.9 2.2 -4.7
v 5.9 3.8 -4.7
v 6.2 2.2 -4.7
v 6.2 4.2 -4.7
v 0 2.1 -4.8
v 0 4.4 -4.8
v 0.1 2.1 -4.8
v 0.1 4.3 -4.8
v 0.1 4.4 -4.8
v 0.2 2.2 -4.8
v 0.2 3.8 -4.8
v 0.2 3.9 -4.8
v 0.2 4 -4.8
v 0.2 4.2 -4.8
v 4.7 2.1 -4.8
v 4.7 2.2 -4.8
v 4.7 3.8 -4.8
v 4.8 2.2 -4.8
v 4.8 2.3 -4.8
v 4.8 3.6 -4.8
v 5.7 2.8 -4.8
v 5.7 3 -4.8
v 5.8 2.2 -4.8
v 5.8 2.3 -4.8
v 5.8 2.8 -4.8
v 5.8 3 -4.8
v 5.8 3.6 -4.8
v 5.9 2.1 -4.8
v 5.9 2.2 -4.8
v 5.9 3.8 -4.8
v 6.2 2.2 -4.8
v 6.2 4.2 -4.8
v 6.3 2.1 -4.8
v 6.3 4.3 -4.8
v 6.3 4.4 -4.8
v 6.4 2.1 -4.8
v 6.4 4.4 -4.8
v 5.7 2.8 -4.9
v 5.7 3 -4.9
v 5.8 2.8 -4.9
v 5.8 3 -4.9
v 4.7 2.1 -5.4
v 4.7 2.2 -5.4
v 5.9 2.1 -5.4
v 5.9 2.2 -5.4
v 0 2 -6.4
v 0 2.1 -6.4
v 0.2 2.1 -6.4
v 0.2 3.9 -6.4
v 0.2 4 -6.4
v 0.4 2.1 -6.4
v 0.4 3.8 -6.4
v 3.1 2.1 -6.4
v 3.1 3.8 -6.4
v 3.3 2.1 -6.4
v 3.3 3.9 -6.4
v 3.3 4 -6.4
v 6.4 2 -6.4
v 6.4 2.1 -6.4
v 0 2 0
v 6.4 2 0
v 0 2 -6.4
v 6.4 2 -6.4
v 0.6 2.8 -0.9
v 0.7 2.8 -0.9
v 0.6 2.8 -1
v 0.7 2.8 -1
v 5.7 2.8 -4.8
v 5.8 2.8 -4.8
v 5.7 2.8 -4.9
v 5.8 2.8 -4.9
v 0.2 3.8 -4.7
v 3.3 3.8 -4.7
v 0.2 3.8 -4.8
v 0.2 3.8 -6.2
v 0.4 3.8 -6.2
v 3.1 3.8 -6.2
v 3.3 3.8 -6.2
v 0.4 3.8 -6.4
v 3.1 3.8 -6.4
v 0.2 4.2 -1
v 6.2 4.2 -1
v 0.2 4.2 -1.1
v 6.2 4.2 -1.1
v 0.2 4.2 -4.7
v 6.2 4.2 -4.7
v 0.2 4.2 -4.8
v 6.2 4.2 -4.8
v 0 2.1 0
v 6.4 2.1 0
v 0.5 2.1 -0.5
v 1.7 2.1 -0.5
v 0 2.1 -1
v 0.1 2.1 -1
v 0.5 2.1 -1
v 1.7 2.1 -1
v 6.3 2.1 -1
v 6.4 2.1 -1
v 0 2.1 -4.8
v 0.1 2.1 -4.8
v 4.7 2.1 -4.8
v 5.9 2.1 -4.8
v 6.3 2.1 -4.8
v 6.4 2.1 -4.8
v 4.7 2.1 -5.4
v 5.9 2.1 -5.4
v 0.2 2.1 -6.2
v 0.4 2.1 -6.2
v 3.1 2.1 -6.2
v 3.3 2.1 -6.2
v 0 2.1 -6.4
v 0.2 2.1 -6.4
v 0.4 2.1 -6.4
v 3.1 2.1 -6.4
v 3.3 2.1 -6.4
v 6.4 2.1 -6.4
v 0.5 2.2 -0.5
v 1.7 2.2 -0.5
v 0.2 2.2 -1
v 0.5 2.2 -1
v 0.6 2.2 -1
v 1.6 2.2 -1
v 1.7 2.2 -1
v 6.2 2.2 -1
v 0.2 2.2 -1.1
v 0.5 2.2 -1.1
v 1.7 2.2 -1.1
v 6.2 2.2 -1.1
v 0.2 2.2 -4.7
v 4.7 2.2 -4.7
v 5.9 2.2 -4.7
v 6.2 2.2 -4.7
v 0.2 2.2 -4.8
v 4.7 2.2 -4.8
v 4.8 2.2 -4.8
v 5.8 2.2 -4.8
v 5.9 2.2 -4.8
v 6.2 2.2 -4.8
v 4.7 2.2 -5.4
v 5.9 2.2 -5.4
v 0.6 3 -0.9
v 0.7 3 -0.9
v 0.6 3 -1
v 0.7 3 -1
v 5.7 3 -4.8
v 5.8 3 -4.8
v 5.7 3 -4.9
v 5.8 3 -4.9
v 0.5 3.8 -1
v 1.7 3.8 -1
v 0.5 3.8 -1.1
v 1.7 3.8 -1.1
v 4.7 3.8 -4.7
v 5.9 3.8 -4.7
v 4.7 3.8 -4.8
v 5.9 3.8 -4.8
v 0.2 4 -4.7
v 3.3 4 -4.7
v 0.2 4 -4.8
v 0.2 4 -6.4
v 3.3 4 -6.4
v 0 4.4 -1
v 0.1 4.4 -1
v 6.3 4.4 -1
v 6.4 4.4 -1
v 0 4.4 -4.8
v 0.1 4.4 -4.8
v 6.3 4.4 -4.8
v 6.4 4.4 -4.8

# faces
f 3/6/1 2/6/1 1/6/1
f 4/6/1 2/6/1 3/6/1
f 5/6/1 2/6/1 4/6/1
f 6/6/1 2/6/1 5/6/1
f 7/4/1 5/4/1 4/4/1
f 8/4/1 5/4/1 7/4/1
f 12/5/1 10/5/1 9/5/1
f 13/5/1 12/5/1 11/5/1
f 14/5/1 10/5/1 12/5/1
f 14/5/1 12/5/1 13/5/1
f 15/4/1 14/4/1 13/4/1
f 16/4/1 14/4/1 15/4/1
f 19/3/1 18/3/1 17/3/1
f 20/3/1 18/3/1 19/3/1
f 22/5/1 21/5/1 20/5/1
f 23/5/1 21/5/1 22/5/1
f 26/7/1 25/7/1 24/7/1
f 27/7/1 25/7/1 26/7/1
f 30/5/1 29/5/1 28/5/1
f 31/5/1 29/5/1 30/5/1
f 35/4/1 33/4/1 32/4/1
f 36/4/1 33/4/1 35/4/1
f 37/5/1 35/5/1 34/5/1
f 38/5/1 35/5/1 37/5/1
f 41/7/1 40/7/1 39/7/1
f 42/7/1 40/7/1 41/7/1
f 47/5/1 44/5/1 43/5/1
f 48/5/1 44/5/1 47/5/1
f 49/5/1 46/5/1 45/5/1
f 50/5/1 46/5/1 49/5/1
f 53/5/2 54/5/2 55/5/2
f 55/5/2 54/5/2 56/5/2
f 51/5/2 52/5/2 59/5/2
f 59/5/2 52/5/2 60/5/2
f 57/5/2 58/5/2 61/5/2
f 61/5/2 58/5/2 62/5/2
f 63/5/2 64/5/2 65/5/2
f 65/5/2 64/5/2 66/5/2
f 67/7/2 68/7/2 69/7/2
f 69/7/2 68/7/2 70/7/2
f 71/3/2 72/3/2 73/3/2
f 73/3/2 72/3/2 74/3/2
f 74/5/2 75/5/2 76/5/2
f 76/5/2 75/5/2 77/5/2
f 78/5/2 79/5/2 81/5/2
f 80/5/2 81/5/2 82/5/2
f 81/5/2 79/5/2 83/5/2
f 82/5/2 81/5/2 83/5/2
f 82/4/2 83/4/2 84/4/2
f 84/4/2 83/4/2 85/4/2
f 86/7/2 87/7/2 88/7/2
f 88/7/2 87/7/2 89/7/2
f 90/4/2 91/4/2 93/4/2
f 93/4/2 91/4/2 94/4/2
f 92/5/2 93/5/2 95/5/2
f 95/5/2 93/5/2 96/5/2
f 97/6/2 98/6/2 99/6/2
f 99/6/2 98/6/2 100/6/2
f 100/6/2 98/6/2 101/6/2
f 101/6/2 98/6/2 102/6/2
f 100/4/2 101/4/2 103/4/2
f 103/4/2 101/4/2 104/4/2
f 107/6/3 106/6/3 105/6/3
f 108/6/3 106/6/3 107/6/3
f 111/3/3 110/3/3 109/3/3
f 112/3/3 110/3/3 111/3/3
f 115/7/3 114/7/3 113/7/3
f 116/7/3 114/7/3 115/7/3
f 119/4/3 118/4/3 117/4/3
f 120/4/3 118/4/3 119/4/3
f 121/4/3 118/4/3 120/4/3
f 122/5/3 120/5/3 119/5/3
f 123/5/3 120/5/3 122/5/3
f 124/5/3 122/5/3 119/5/3
f 125/5/3 122/5/3 124/5/3
f 127/5/3 126/5/3 125/5/3
f 128/5/3 126/5/3 127/5/3
f 129/5/3 126/5/3 128/5/3
f 130/5/3 126/5/3 129/5/3
f 131/5/3 126/5/3 130/5/3
f 132/1/3 129/1/3 128/1/3
f 133/1/3 131/1/3 130/1/3
f 134/6/3 128/6/3 127/6/3
f 135/1/3 133/1/3 132/1/3
f 135/6/3 128/6/3 134/6/3
f 135/1/3 132/1/3 128/1/3
f 136/5/3 126/5/3 131/5/3
f 136/1/3 133/1/3 135/1/3
f 136/1/3 131/1/3 133/1/3
f 138/5/3 135/5/3 134/5/3
f 138/5/3 136/5/3 135/5/3
f 139/5/3 126/5/3 136/5/3
f 139/5/3 136/5/3 138/5/3
f 140/5/3 138/5/3 137/5/3
f 141/5/3 120/5/3 123/5/3
f 142/5/3 140/5/3 137/5/3
f 142/5/3 141/5/3 140/5/3
f 143/3/3 121/3/3 120/3/3
f 143/5/3 141/5/3 142/5/3
f 143/5/3 120/5/3 141/5/3
f 144/3/3 121/3/3 143/3/3
f 145/4/3 143/4/3 142/4/3
f 145/4/3 144/4/3 143/4/3
f 146/4/3 144/4/3 145/4/3
f 149/1/3 148/1/3 147/1/3
f 150/1/3 148/1/3 149/1/3
f 152/1/3 148/1/3 150/1/3
f 153/1/3 152/1/3 151/1/3
f 154/1/3 148/1/3 152/1/3
f 154/1/3 152/1/3 153/1/3
f 157/5/3 156/5/3 155/5/3
f 158/5/3 156/5/3 157/5/3
f 161/5/3 160/5/3 159/5/3
f 162/5/3 160/5/3 161/5/3
f 163/1/4 164/1/4 167/1/4
f 165/1/4 166/1/4 169/1/4
f 167/1/4 168/1/4 170/1/4
f 168/1/4 169/1/4 170/1/4
f 163/1/4 167/1/4 170/1/4
f 170/1/4 169/1/4 171/1/4
f 171/1/4 169/1/4 173/1/4
f 172/1/4 173/1/4 174/1/4
f 169/1/4 166/1/4 175/1/4
f 174/1/4 173/1/4 175/1/4
f 173/1/4 169/1/4 175/1/4
f 176/4/4 177/4/4 178/4/4
f 178/4/4 177/4/4 179/4/4
f 179/4/4 177/4/4 180/4/4
f 178/5/4 179/5/4 181/5/4
f 181/5/4 179/5/4 182/5/4
f 182/5/4 179/5/4 183/5/4
f 183/5/4 179/5/4 184/5/4
f 184/5/4 179/5/4 185/5/4
f 178/5/4 181/5/4 186/5/4
f 186/5/4 181/5/4 187/5/4
f 187/5/4 188/5/4 189/5/4
f 189/5/4 188/5/4 190/5/4
f 190/5/4 188/5/4 191/5/4
f 190/1/4 191/1/4 192/1/4
f 192/1/4 191/1/4 193/1/4
f 189/6/4 190/6/4 194/6/4
f 190/1/4 192/1/4 195/1/4
f 194/6/4 190/6/4 195/6/4
f 195/1/4 192/1/4 196/1/4
f 193/1/4 191/1/4 197/1/4
f 191/5/4 188/5/4 198/5/4
f 197/1/4 191/1/4 198/1/4
f 195/5/4 196/5/4 200/5/4
f 196/5/4 197/5/4 200/5/4
f 197/5/4 198/5/4 200/5/4
f 194/5/4 195/5/4 200/5/4
f 198/5/4 188/5/4 201/5/4
f 200/5/4 198/5/4 201/5/4
f 199/5/4 200/5/4 202/5/4
f 185/5/4 179/5/4 203/5/4
f 199/5/4 202/5/4 204/5/4
f 202/5/4 203/5/4 204/5/4
f 179/3/4 180/3/4 205/3/4
f 204/5/4 203/5/4 205/5/4
f 203/5/4 179/5/4 205/5/4
f 205/3/4 180/3/4 206/3/4
f 204/4/4 205/4/4 207/4/4
f 205/4/4 206/4/4 207/4/4
f 207/4/4 206/4/4 208/4/4
f 209/7/4 210/7/4 211/7/4
f 211/7/4 210/7/4 212/7/4
f 213/4/4 214/4/4 215/4/4
f 215/4/4 214/4/4 216/4/4
f 217/6/4 218/6/4 219/6/4
f 217/6/4 219/6/4 222/6/4
f 219/5/4 220/5/4 222/5/4
f 222/5/4 220/5/4 223/5/4
f 217/6/4 222/6/4 224/6/4
f 223/5/4 220/5/4 225/5/4
f 217/6/4 224/6/4 226/6/4
f 224/5/4 225/5/4 226/5/4
f 220/4/4 221/4/4 227/4/4
f 226/5/4 225/5/4 227/5/4
f 225/5/4 220/5/4 227/5/4
f 227/4/4 221/4/4 228/4/4
f 217/6/4 226/6/4 229/6/4
f 229/6/4 226/6/4 230/6/4
f 233/6/5 232/6/5 231/6/5
f 234/6/5 232/6/5 233/6/5
f 237/7/5 236/7/5 235/7/5
f 238/7/5 236/7/5 237/7/5
f 241/7/5 240/7/5 239/7/5
f 242/7/5 240/7/5 241/7/5
f 245/5/5 244/5/5 243/5/5
f 246/5/5 244/5/5 245/5/5
f 247/5/5 244/5/5 246/5/5
f 248/5/5 244/5/5 247/5/5
f 249/5/5 244/5/5 248/5/5
f 250/5/5 248/5/5 247/5/5
f 251/5/5 248/5/5 250/5/5
f 254/5/5 253/5/5 252/5/5
f 255/5/5 253/5/5 254/5/5
f 258/5/5 257/5/5 256/5/5
f 259/5/5 257/5/5 258/5/5
f 260/6/6 261/6/6 262/6/6
f 262/6/6 261/6/6 263/6/6
f 260/6/6 262/6/6 264/6/6
f 264/6/6 262/6/6 265/6/6
f 265/6/6 262/6/6 266/6/6
f 263/6/6 261/6/6 267/6/6
f 267/6/6 261/6/6 268/6/6
f 268/6/6 261/6/6 269/6/6
f 270/6/6 271/6/6 276/6/6
f 271/6/6 272/6/6 276/6/6
f 274/6/6 275/6/6 277/6/6
f 273/6/6 274/6/6 277/6/6
f 270/6/6 276/6/6 278/6/6
f 276/6/6 277/6/6 278/6/6
f 278/6/6 277/6/6 279/6/6
f 279/6/6 277/6/6 280/6/6
f 280/6/6 277/6/6 281/6/6
f 270/6/6 278/6/6 282/6/6
f 282/6/6 278/6/6 283/6/6
f 279/6/6 280/6/6 284/6/6
f 284/6/6 280/6/6 285/6/6
f 281/6/6 277/6/6 286/6/6
f 277/6/6 275/6/6 287/6/6
f 286/6/6 277/6/6 287/6/6
f 288/3/6 289/3/6 291/3/6
f 291/3/6 289/3/6 292/3/6
f 292/3/6 289/3/6 293/3/6
f 293/3/6 289/3/6 294/3/6
f 290/5/6 291/5/6 296/5/6
f 296/5/6 291/5/6 297/5/6
f 294/5/6 295/5/6 298/5/6
f 298/5/6 295/5/6 299/5/6
f 300/5/6 301/5/6 304/5/6
f 304/5/6 301/5/6 305/5/6
f 302/5/6 303/5/6 308/5/6
f 308/5/6 303/5/6 309/5/6
f 306/4/6 307/4/6 310/4/6
f 307/4/6 308/4/6 310/4/6
f 305/4/6 306/4/6 310/4/6
f 310/4/6 308/4/6 311/4/6
f 312/7/6 313/7/6 314/7/6
f 314/7/6 313/7/6 315/7/6
f 316/7/6 317/7/6 318/7/6
f 318/7/6 317/7/6 319/7/6
f 320/5/6 321/5/6 322/5/6
f 322/5/6 321/5/6 323/5/6
f 324/5/6 325/5/6 326/5/6
f 326/5/6 325/5/6 327/5/6
f 328/4/6 329/4/6 330/4/6
f 330/4/6 329/4/6 331/4/6
f 331/4/6 329/4/6 332/4/6
f 333/4/6 334/4/6 337/4/6
f 334/3/6 335/3/6 338/3/6
f 337/4/6 334/4/6 338/4/6
f 335/4/6 336/4/6 339/4/6
f 338/3/6 335/3/6 339/3/6
f 339/4/6 336/4/6 340/4/6
